<svg xmlns="http://www.w3.org/2000/svg" viewBox="0 0 671.78668 671.78668" height="671.787" width="671.787"><g fill="#100f0d"><path d="M335.895 60.52c89.686 0 100.31.343 135.73 1.96 32.748 1.492 50.534 6.964 62.37 11.564 15.678 6.093 26.868 13.372 38.62 25.127 11.756 11.754 19.034 22.943 25.128 38.622 4.6 11.836 10.072 29.62 11.566 62.37 1.614 35.42 1.957 46.043 1.957 135.73 0 89.688-.343 100.312-1.958 135.73-1.495 32.75-6.967 50.535-11.567 62.37-6.094 15.68-13.372 26.87-25.127 38.623-11.753 11.754-22.943 19.033-38.62 25.126-11.837 4.6-29.623 10.073-62.372 11.567-35.415 1.616-46.036 1.958-135.73 1.958-89.694 0-100.315-.342-135.73-1.958-32.75-1.494-50.535-6.966-62.37-11.566-15.68-6.092-26.87-13.37-38.622-25.125-11.754-11.753-19.033-22.943-25.127-38.622-4.6-11.836-10.07-29.62-11.565-62.37-1.616-35.42-1.96-46.043-1.96-135.73 0-89.688.344-100.312 1.96-135.73 1.494-32.75 6.965-50.535 11.565-62.37 6.094-15.68 13.373-26.87 25.126-38.622 11.755-11.754 22.945-19.033 38.623-25.126 11.836-4.6 29.622-10.072 62.37-11.565 35.42-1.617 46.044-1.96 135.732-1.96m0-60.52c-91.224 0-102.663.385-138.49 2.02-35.753 1.63-60.17 7.31-81.535 15.612-22.087 8.584-40.82 20.07-59.493 38.743-18.674 18.673-30.16 37.406-38.743 59.494C9.33 137.234 3.652 161.65 2.02 197.403.387 233.23 0 244.67 0 335.894c0 91.222.386 102.66 2.02 138.487 1.632 35.755 7.31 60.17 15.614 81.536 8.584 22.088 20.07 40.82 38.743 59.494 18.673 18.674 37.406 30.16 59.493 38.743 21.366 8.303 45.782 13.982 81.535 15.613 35.827 1.635 47.266 2.02 138.49 2.02 91.222 0 102.66-.385 138.488-2.02 35.753-1.63 60.17-7.31 81.534-15.613 22.088-8.584 40.822-20.07 59.495-38.743 18.673-18.673 30.16-37.406 38.743-59.494 8.302-21.365 13.98-45.78 15.612-81.535 1.634-35.825 2.02-47.264 2.02-138.487 0-91.224-.386-102.662-2.02-138.49-1.63-35.752-7.31-60.168-15.612-81.534-8.584-22.09-20.07-40.822-38.743-59.495-18.673-18.674-37.407-30.16-59.495-38.743-21.365-8.303-45.78-13.98-81.534-15.612C438.556.385 427.117 0 335.895 0"/><path d="M335.895 163.407c-95.262 0-172.487 77.225-172.487 172.486 0 95.262 77.225 172.486 172.487 172.486 95.26 0 172.485-77.225 172.485-172.487 0-95.26-77.224-172.486-172.485-172.486zm0 284.45c-61.838 0-111.966-50.128-111.966-111.964 0-61.837 50.127-111.965 111.965-111.965 61.836 0 111.964 50.128 111.964 111.965 0 61.836-50.13 111.964-111.965 111.964M555.503 156.592c0 22.26-18.047 40.307-40.308 40.307-22.262 0-40.307-18.047-40.307-40.308 0-22.26 18.045-40.308 40.307-40.308 22.26 0 40.308 18.047 40.308 40.308"/></g></svg>